<svg version="1.1" id="Layer_2_00000183935202459351747020000001743140159066405025_"
	 xmlns="http://www.w3.org/2000/svg" xmlns:xlink="http://www.w3.org/1999/xlink" x="0px" y="0px" viewBox="0 0 175.4 173"
	 style="enable-background:new 0 0 175.4 173;" xml:space="preserve">
<style type="text/css">
	.st0{fill:#C58A2B;}
</style>
<g id="flower">
	<g>
		<path class="st0" d="M175.3,84.7c0,0.3,0,0.5,0,0.8C175.4,85.2,175.4,84.9,175.3,84.7L175.3,84.7z"/>
		<path class="st0" d="M175.4,85.5c0.2,19.9-23.7,30.1-37.9,16c-8.1-7.9-8.7-21.3-1.5-29.9c13-15.6,38.2-7.5,39.4,13
			c-0.6-13.9-12.7-24.3-25.8-24.1c9-9.6,9.4-25.7-0.7-35.4c14.5,14.5,3.8,38.8-16.4,38.1c-11.3-0.3-20.9-9.7-21.4-21
			c-1.1-20.3,23-31.4,37.8-17.1c-10.1-10.1-26.6-9.2-36,0.5C113,12.4,102.3,0.3,88.2,0c20.5,0.7,29.3,25.8,13.9,39.1
			c-8.4,7.5-21.9,7.1-29.9-0.8C57.7,24.2,67.7-0.4,88.2,0c-14.3-0.5-25.9,11.5-26,25.1C52.8,16,36.9,15.2,27,24.9
			c14.9-14.1,38.9-2.7,37.6,17.5C64,53.7,54.2,63.1,43,63.2c-20.3,0.5-30.7-24-16-38.3c-10.3,9.7-10,25.9-0.9,35.7
			C14.2,60.3,2.6,68.7,0.4,81.3c3.9-20.2,30-25,40.8-7.8c6.1,9.5,3.6,22.7-5.4,29.4c-16.2,12.2-38.9-1.5-35.4-21.7
			c-3,15.6,9.7,30.2,25.3,29.9c-11.6,9.7-12.1,28.5-0.2,38.6c-15.5-13.5-6.4-38.5,13.9-39.1c11.3-0.5,21.5,8.3,22.7,19.5
			c2.4,20.1-20.9,32.9-36.6,19.6c10.5,9.2,26.3,7.5,35.2-2.1c0,13.5,11.3,25.6,25.5,25.3c-20.5,0-30.2-24.8-15.3-38.6
			c8.2-7.8,21.6-7.9,29.9-0.2c15.1,13.6,5.9,38.5-14.6,38.8c14.9,0,26.3-13.4,25-27.6c0.9,1.1,1.8,2.1,2.9,3.1
			c12.8,11.7,33.8,6.7,40.2-9.1c-8,18.9-34.6,18-41.5-1.1c-3.9-10.6,1.3-23,11.5-27.6c18.4-8.5,37.7,9.7,30,28.7
			c4.3-10.1,1.2-21.2-6.1-28.2C162.7,112.2,175.7,100.3,175.4,85.5z M125.4,81c-0.4-2.4-1-4.7-1.8-6.9c-1-3.1-2.4-6-4.1-8.6
			c3.7,2,7.8,3.1,12.2,3C128.4,72,126.3,76.4,125.4,81z M105.8,42.8L105.8,42.8c-0.1,4.1,0.9,8,2.7,11.4c-3.7-2.4-7.8-4.2-12.2-5.3
			C99.9,47.7,103.1,45.6,105.8,42.8z M78.8,48.9c-4.1,1-8,2.6-11.4,4.8c1.5-3.2,2.4-6.7,2.4-10.4C72.4,45.9,75.5,47.7,78.8,48.9z
			 M43.6,68.5c4.1,0.1,8.1-0.8,11.6-2.5c-1.6,2.6-2.9,5.4-3.8,8.3c-0.7,1.9-1.2,3.9-1.6,5.9C48.9,75.9,46.9,71.8,43.6,68.5z
			 M41.5,105.3L41.5,105.3c4-3.4,6.7-7.8,8-12.7c0.9,6.2,3.4,12.4,7.7,17.9C52.8,107.2,47.3,105.2,41.5,105.3z M67.3,130.7
			c0-5.3-1.6-10.2-4.5-14.2c4.3,3.6,9.3,6.2,14.6,7.5C73.7,125.3,70.2,127.6,67.3,130.7z M106,132.1c-2.8-3.6-6.3-6.1-10.2-7.7v0
			c4.3-0.9,8.5-2.6,12.4-5C106.4,123.4,105.7,127.8,106,132.1z M132.6,104.3L132.6,104.3c-4.5-0.2-8.5,0.6-12,2.3
			c2.8-4.7,4.5-9.7,5.1-14.7c1.1,4.7,3.5,9.1,7.2,12.5C132.8,104.4,132.7,104.4,132.6,104.3z"/>
	</g>
</g>
</svg>
