<?xml version="1.0" encoding="utf-8"?>
<!-- Generator: Adobe Illustrator 28.0.0, SVG Export Plug-In . SVG Version: 6.00 Build 0)  -->
<svg version="1.1" xmlns="http://www.w3.org/2000/svg" xmlns:xlink="http://www.w3.org/1999/xlink" x="0px" y="0px"
	 viewBox="0 0 203.7 178" style="enable-background:new 0 0 203.7 178;" xml:space="preserve">
<style type="text/css">
	.st0{fill:#C58A2B;}
</style>
<g id="Layer_3">
</g>
<g id="Layer_2_00000135685797843822945600000013907600141999568804_">
	<path class="st0" d="M165.8,129.5L165.8,129.5c-0.2-0.1-0.3-0.1-0.3-0.1c-0.2-2.1,0.8-4.4,2-6.6c2.8-5,7.8-9.8,11.8-14l-7.2,0.6
		c-1.6,0.2-4.4,0.2-6.1-0.2c1-1.2,2.6-2.3,3.7-3.3c7.1-5.6,12.9-12.8,18.1-20c5.2-7,11.1-17.2,15.7-24.8
		c-6.6,5.2-15.3,12.6-22.1,17.3c-5,3.3-20.5,15.3-25.8,11.4c-2-1.7-0.7-5.1,0.3-7.4l3.2-6.4c-5,3.3-17.9,13.6-23.7,11.4
		c-2.2-1.6-0.7-6.2-0.2-8.6c2.4-7.9,7.9-14.6,14.2-19.7l4.3-3.5l-5.3,1.6c-19.1,5.4-9.2-8.6-2.6-16.7l4.8-5.9
		c-5.1,3.6-12.5,10.9-19.3,9c-5.3-2.5-3.9-11.8-3.3-16.6c0.9-5.9,2.4-13.1,3.2-19c0.3-2.5,0.9-4.9,0.6-7.4c0-0.3-0.4-0.7-0.8-0.8
		c-0.5-0.1-0.8,0-1.1,0.2c-0.1,0.1-0.1,0.1-0.2,0.2c-0.1,0.1-0.1,0.1-0.2,0.2c-0.1,0.1-0.1,0.2-0.2,0.3c-0.5,0.9-0.7,1.6-1,2.4
		c-3.4,8.7-7.2,17.4-11.6,25.6c-1.6,2.6-5.3,10.2-8.7,9.6c-3.8-1.3-5.8-7.6-6.9-11.2L98,28.3c1.2,6,2.7,15.1-1.6,20
		c-4.4,4.5-10.4-8.2-11.8-11.4l-4.2,1.7c3.4,9.8,8.1,25.5,3.9,35.3c-0.6,1.1-1.5,2.4-2.5,3.2c-1.2-2.8-1.6-6.5-2.4-10
		c-0.8-3.3-1.7-7.2-5-9.2l-3.8-2.2c-0.3,4.2-0.5,9.2-1.8,13.2c-1.3-1.7-2.2-3.9-3-5.8c-1.8-4.3-3.4-11.1-4.8-15.7l-3.3,8.3
		c-2,5.4-5.6,1.8-8.4-1C43.4,48,37.8,40.3,36,31.6l-6.3,0.2c0,3.6,0.3,6.8,0.8,10.3c0.8,5.5,2.4,11,4.9,15.9l-4.6,2.2
		c0,0.1,0.1,0.2,0.1,0.3c0,0.1,0.1,0.1,0.1,0.2c0.3,0.6,0.5,1.1,0.8,1.6c2.2,4.3,4.1,8.9,5.5,13.5c0.6,2.3,1.3,4.7,0.9,6.8
		c-0.1,0.3-0.1,0.4-0.2,0.5c-2.5,1.1-4.7-1.2-6.3-3.9c-0.6-1.2-1.2-2.4-1.8-3.6l-5.6,2.5c0.5,1.1,0.9,2,1.4,3c0.3,0.5,0.6,1.1,1,1.6
		c2.1,4.1,4.1,8.3,5.7,12.5c0.4,1.2,0.9,2.4,1.1,3.5c-2.7,0.3-5.6,0-8.4-0.4c-6.8-1.2-13.6-3.7-17.8-8.9c-0.7-0.9-1.3-1.8-2.1-2.6
		c-0.5-0.5-1-0.9-1.8-1c-1.6-0.4-3.2,1-3.2,2.6c0,1.2,0.5,2.3,1,3.3c4.5,8.8,10.6,16.4,18.1,22.9c3.8,3.2,8,6,12.7,7.8
		c2.9,1.3,6.7,1.4,8.7,3.7c-0.5,1.4-1.9,2.2-3.4,3.2c-7.8,4.5-16.8,7.1-25.5,9.6l3.7,1.9c21.6,11,50.4,15.1,70.9,0.3
		c-5.9,11-13.1,21.2-23.3,28.6c-4.7,3.5-10.1,6.1-16,8.4c21.4,0.5,37.9-17.2,43.9-36.9c0.7,1.2,1.4,2.4,2.2,3.6
		c2.3,3.4,5.2,6.5,8.2,9.2c6.1,5.5,13.6,9.6,21.2,12.7c1.5,0.5,5.7,2,7,2.5c1.6,0.5,5.5,1.4,7.2,1.9c2.9,0.6,6.8,1.2,9.8,1.8l9.9,1
		l4.4,0.4c-4.9-5.6-10.3-11.8-13.1-18.7c-0.7-2.2-1.7-4.9,0.3-6.4c0.6-0.5,1.7-0.8,2.5-1c14-3.8,33.1-4.9,39.7-20.3l2.1-5.4
		c-5.2,2.1-10.9,4.6-16.4,6C172.7,129.1,169,130.2,165.8,129.5z"/>
</g>
</svg>
