<?xml version="1.0" encoding="UTF-8"?>
<svg id="Layer_2" data-name="Layer 2" xmlns="http://www.w3.org/2000/svg" viewBox="0 0 227.06 227.46">
  <defs>
    <style>
      .cls-1 {
        fill: #c58a2b;
        stroke-width: 0px;
      }
    </style>
  </defs>
  <g id="snowflake">
    <path class="cls-1" d="m175.42,172.95c11.5-.18,23-.85,34.34-2.89-9.9-1.84-19.92-2.51-29.96-2.88-3.31-.11-6.7-.14-10.05-.16-7.12-7.43-14.27-14.84-21.46-22.22l28.47-.35-28.5-28.04c6.54-.11,13.09-.25,19.63-.42,9.03,9.67,18.42,19.05,29,27.04-6.19-9.75-13.49-18.67-21.15-27.28,16.65-.5,33.28-1.2,49.88-2.1-16.35-.9-32.74-1.6-49.14-2.11,8.2-7.74,16.07-15.82,22.96-24.77-11.31,7.07-21.55,15.63-31.47,24.51-6.64-.18-13.28-.32-19.92-.44l28.98-30.09-28.35,1.74c7.27-7.37,14.5-14.76,21.71-22.18.09,0,.15,0,.15,0,13.34-.81,26.69-2.1,39.72-5.21-11.23-1.39-22.53-1.46-33.81-1.05,17.06-17.64,33.94-35.4,50.61-53.27-18.13,16.64-36.15,33.49-54.05,50.53-.75-11.4-1.98-22.78-4.55-33.95-1.71,13.05-1.64,26.22-1.12,39.34-7.75,7.4-15.47,14.84-23.17,22.31v-29.78l-27.98,29.68c-.1-6.79-.22-13.58-.38-20.37,9.24-9.44,18.16-19.23,25.65-30.14-9.3,6.51-17.75,14.06-25.87,21.95-.47-16.81-1.14-33.61-2.03-50.37-.97,16.83-1.72,33.7-2.27,50.58-8.21-7.97-16.75-15.59-26.14-22.16,7.57,10.97,16.58,20.81,25.89,30.31-.2,7.03-.36,14.07-.49,21.11l-30.19-29.23,1.65,27.59c-7.58-7.45-15.19-14.88-22.82-22.26-.19-13.1-.84-26.22-3.25-39.13-1.91,11.05-2.54,22.23-2.69,33.41C36.17,33.75,18.98,17.46,1.68,1.37c16.18,17.6,32.58,35.09,49.15,52.48-11.58.18-23.15.85-34.57,2.9,9.9,1.84,19.92,2.51,29.96,2.88,3.39.12,6.84.14,10.27.16,7.37,7.7,14.78,15.37,22.21,23.01l-29.41.79,27.18,27.25c-6.26.11-12.51.24-18.76.4-9.35-9.14-19.06-17.96-29.87-25.39,6.44,9.2,13.91,17.58,21.72,25.63-16.54.5-33.06,1.2-49.55,2.1,16.73.93,33.49,1.64,50.27,2.15-8.06,8.29-15.79,16.93-22.44,26.43,11.09-7.65,21.02-16.77,30.61-26.19,6.2.16,12.39.3,18.59.4l-27.79,29.31,27.71.06c-6.88,6.99-13.74,14-20.57,21.03-13.32.09-26.67.65-39.81,3.05,11.26,2.02,22.67,2.7,34.08,2.89-16.77,17.35-33.37,34.82-49.75,52.39,17.66-16.2,35.22-32.61,52.67-49.2.14,11.34.76,22.67,2.69,33.87,2.44-13.04,3.07-26.29,3.25-39.52,7.03-6.71,14.04-13.46,21.03-20.23l-.07,28.07,30.01-28.44c.1,6.12.21,12.24.37,18.35-9.33,9.52-18.36,19.38-25.95,30.37,9.4-6.58,17.96-14.22,26.18-22.2.47,16.31,1.12,32.6,1.98,48.86.93-16.21,1.65-32.45,2.19-48.7,8.15,7.93,16.63,15.51,25.96,22.04-5.67-8.32-12.26-15.91-19.07-23.29-2.14-2.31-4.39-4.62-6.63-6.9.18-6.07.32-12.14.45-18.21l27.8,28.47.52-29.69c7.49,7.36,15,14.7,22.54,22,.18,13.13.83,26.28,3.25,39.23,1.92-11.07,2.54-22.28,2.69-33.49,17.8,17.17,35.72,34.17,53.75,50.94-16.82-18.28-33.87-36.46-51.1-54.51Zm-13.13-34.33l-19.77.24c-7.24-7.42-14.52-14.81-21.83-22.18,6.38-.02,12.77-.07,19.15-.15l22.45,22.09Zm-.27-50.93l-22.17,23.02c-6.36-.09-12.72-.13-19.08-.16,7.23-7.19,14.43-14.41,21.6-21.65l19.65-1.21Zm-23.83-23.35v20.5c-7.29,7.1-14.55,14.23-21.78,21.38,0-6.22-.03-12.45-.1-18.67l21.88-23.21Zm-50.91,1.29l23.15,22.41c-.08,6.05-.14,12.09-.17,18.14-7.26-7.27-14.54-14.52-21.85-21.74l-1.12-18.82Zm-23.91,23.57l21.01-.56c7.15,7.33,14.33,14.62,21.54,21.89-7.04.02-14.08.07-21.12.16l-21.43-21.49Zm-.19,50.51l22-23.21c6.89.09,13.79.14,20.68.17-7.7,7.67-15.37,15.36-23.01,23.08l-19.68-.04Zm23.34,24.39l.05-19.91c7.92-7.7,15.81-15.44,23.67-23.21.01,6.84.05,13.67.14,20.51l-23.85,22.61Zm51.51-.12l-21.89-22.42c.11-6.84.18-13.69.23-20.53,7.32,7.34,14.66,14.65,22.03,21.93l-.37,21.02Z"/>
  </g>
</svg>