<?xml version="1.0" encoding="utf-8"?>
<!-- Generator: Adobe Illustrator 28.0.0, SVG Export Plug-In . SVG Version: 6.00 Build 0)  -->
<svg version="1.1" id="Layer_4" xmlns="http://www.w3.org/2000/svg" xmlns:xlink="http://www.w3.org/1999/xlink" x="0px" y="0px"
	 viewBox="0 0 188.9 189.3" style="enable-background:new 0 0 188.9 189.3;" xml:space="preserve">
<style type="text/css">
	.st0{fill:#C58A2B;stroke:#C58A2B;stroke-width:0.5;stroke-miterlimit:10;}
</style>
<path class="st0" d="M132.8,97L132.8,97c4.3,0,8.6-0.1,13-0.2c13.8-0.4,27.6-1,41.3-2.8c-18.1-2.4-36.3-2.9-54.5-3
	c-0.9-7.5-4-14.7-8.8-20.5c3.7-3.7,7.4-7.5,11-11.3c10.9-11.5,21.6-23.1,31.5-35.5c-16.5,13.1-31.8,27.7-46.7,42.5
	c-4.8-4.2-13.1-7.6-20.2-9h0l-1.8-0.4c0-0.1,0-0.1,0-0.2c0-4.5,0-8.9-0.2-13.4c-0.4-13.8-1-27.6-2.9-41.3c-2.5,18.2-3,36.6-3.1,54.9
	l-1,0.2c-2.8,0.5-5.8,1.3-8.7,2.4c-0.1,0-0.3,0.1-0.4,0.1c-0.4,0.2-0.8,0.3-1.2,0.5c-0.1,0-0.2,0.1-0.3,0.1c-4.8,2-9.3,4.7-12.4,7.8
	C63.7,64.3,60,60.6,56.3,57C44.8,46.1,33.2,35.4,20.7,25.6c13.2,16.5,27.7,31.8,42.6,46.8l1.7-1.7c-4.7,5.7-7.7,12.7-8.6,19.9
	c-4.4,0-8.8,0-13.2,0.2c-13.8,0.4-27.6,1-41.3,2.8c18,2.4,36.1,2.9,54.2,3c0.2,8.4,3.3,16.8,9.7,24.1c-3.7,3.7-7.4,7.5-11,11.3
	c-10.9,11.5-21.6,23.1-31.5,35.5c16.5-13.1,31.8-27.7,46.8-42.6l-0.3-0.3c6.3,5.3,14,8.2,21.9,8.8c0,4.3,0,8.6,0.1,12.8
	c0.4,13.8,1,27.6,2.9,41.3c2.4-18,2.9-36,3-54.1c9.1-0.7,18.1-4.6,24.7-11.8c3.3,3.3,6.6,6.5,10,9.8c11.5,10.9,23.1,21.6,35.5,31.5
	c-12.9-16.2-27.2-31.2-41.7-45.9C130.4,110.7,132.5,103.8,132.8,97z M90,57.1l3.1-0.2h2.7l4.1,0.5l-0.3-0.2c1,0.2,2,0.5,3,0.8
	c-2.6-0.6-5.2-0.9-8-0.9c-2.8,0-5.5,0.3-8.1,0.9C87.6,57.7,88.8,57.4,90,57.1z"/>
</svg>
